<?xml version="1.0" encoding="utf-8"?>
<!-- Generator: Adobe Illustrator 16.0.0, SVG Export Plug-In . SVG Version: 6.00 Build 0)  -->
<!DOCTYPE svg PUBLIC "-//W3C//DTD SVG 1.1//EN" "http://www.w3.org/Graphics/SVG/1.1/DTD/svg11.dtd" [
	<!ENTITY ns_extend "http://ns.adobe.com/Extensibility/1.0/">
	<!ENTITY ns_ai "http://ns.adobe.com/AdobeIllustrator/10.0/">
	<!ENTITY ns_graphs "http://ns.adobe.com/Graphs/1.0/">
	<!ENTITY ns_vars "http://ns.adobe.com/Variables/1.0/">
	<!ENTITY ns_imrep "http://ns.adobe.com/ImageReplacement/1.0/">
	<!ENTITY ns_sfw "http://ns.adobe.com/SaveForWeb/1.0/">
	<!ENTITY ns_custom "http://ns.adobe.com/GenericCustomNamespace/1.0/">
	<!ENTITY ns_adobe_xpath "http://ns.adobe.com/XPath/1.0/">
]>
<svg version="1.1" id="Layer_1" xmlns:x="&ns_extend;" xmlns:i="&ns_ai;" xmlns:graph="&ns_graphs;"
	 xmlns="http://www.w3.org/2000/svg" xmlns:xlink="http://www.w3.org/1999/xlink" x="0px" y="0px" width="304.4px" height="53.7px"
	 viewBox="0 0 304.4 53.7" enable-background="new 0 0 304.4 53.7" xml:space="preserve">
<metadata>
	<sfw  xmlns="&ns_sfw;">
		<slices></slices>
		<sliceSourceBounds  width="304.4" height="58.3" bottomLeftOrigin="true" x="264.7" y="-358.9"></sliceSourceBounds>
	</sfw>
</metadata>
<g>
	<path d="M1.9,21.3V1h9.8c2,0,3.5,0.4,4.7,1.1c1.4,0.9,2.1,2.3,2.1,4.1c0,2.1-0.9,3.5-2.6,4.4c2.2,0.9,3.3,2.4,3.3,4.7
		c0,4.1-2.8,6.1-8.4,6.1H1.9z M6.3,9h4.6c1.2,0,2-0.2,2.5-0.6c0.5-0.4,0.8-0.9,0.8-1.7c0-1-0.4-1.6-1.2-2c-0.5-0.2-1.2-0.3-2.1-0.3
		H6.3V9z M6.3,17.9h4.6c1.5,0,2.6-0.3,3.2-0.8c0.5-0.4,0.7-1.1,0.7-2c0-1.1-0.4-1.9-1.2-2.3c-0.6-0.3-1.5-0.5-2.7-0.5H6.3V17.9z"/>
	<path d="M21.1,21.3V1h5.9l5,15.1L36.8,1h5.8v20.4h-4.2V6.8l-4.8,14.5H30L25.2,6.8v14.5H21.1z"/>
	<path d="M48,21.3L43.3,1h4.6l3,14.7L54.5,1h4.4l3.5,14.7L65.4,1h4.5l-4.9,20.4h-4.8L56.6,6.9l-3.8,14.4H48z"/>
	<path d="M78.7,9.7c-1.3-1.5-1.9-2.9-1.9-4.2c0-1.5,0.7-2.7,2-3.7c1.1-0.8,2.4-1.1,4.1-1.1c1.7,0,3.1,0.5,4.2,1.4
		c1,0.9,1.5,2,1.5,3.4C88.6,6.8,88,8,87,9c-0.6,0.6-1.5,1.2-2.5,1.8l3.3,3.8c1-1,1.8-2,2.5-3l2.8,1.8c-0.8,1.4-1.8,2.7-3.1,3.9
		l3.3,4.2h-4.8l-1.2-1.5c-0.9,0.7-1.7,1.2-2.4,1.5c-0.9,0.4-2.1,0.5-3.3,0.5c-1.7,0-3.2-0.5-4.4-1.5c-1.5-1.2-2.3-2.8-2.3-4.8
		c0-1.8,0.6-3.2,1.7-4.3C76.9,10.7,77.7,10.2,78.7,9.7z M84.9,17.1l-4.1-4.8c-0.6,0.3-1.1,0.6-1.4,1c-0.5,0.6-0.7,1.3-0.7,2.2
		c0,0.9,0.3,1.7,0.9,2.2c0.6,0.5,1.3,0.8,2.1,0.8C82.8,18.4,83.9,18,84.9,17.1z M82.2,8.4c0.1,0,0.1-0.1,0.2-0.1
		c0.9-0.4,1.6-0.8,1.9-1.3c0.4-0.4,0.6-0.9,0.6-1.5s-0.2-1-0.7-1.3c-0.4-0.3-0.9-0.4-1.5-0.4c-0.7,0-1.3,0.2-1.7,0.6
		c-0.3,0.3-0.4,0.7-0.4,1.2c0,0.8,0.5,1.7,1.4,2.6C82,8.2,82.1,8.3,82.2,8.4L82.2,8.4C82.1,8.3,82.1,8.3,82.2,8.4L82.2,8.4z"/>
	<path d="M99.5,21.3V1h5.9l5,15.1L115.2,1h5.8v20.4h-4.2V6.8L112,21.3h-3.6l-4.8-14.5v14.5H99.5z"/>
	<path d="M123.6,21.3V1h4.4v20.4H123.6z"/>
	<path d="M130.7,21.3V1h4.4l8.5,13.7V1h4.1v20.4h-4.4l-8.5-13.7v13.7H130.7z"/>
	<path d="M150.4,21.3V1h4.4v20.4H150.4z"/>
</g>
<g>
	<path d="M1.3,45V31.5h5.8c1.5,0,2.7,0.5,3.4,1.4c0.6,0.7,0.8,1.6,0.8,2.8c0,1.3-0.4,2.3-1.3,3c-0.8,0.7-2,1.1-3.4,1.1H3.1V45H1.3z
		 M3.1,38.2h3.6c0.8,0,1.5-0.2,1.9-0.7c0.5-0.5,0.8-1.1,0.8-2c0-0.9-0.3-1.6-0.9-2.1C8.1,33.1,7.5,33,6.8,33H3.1V38.2z"/>
	<path d="M12.3,45V31.5h9.4v1.6h-7.6v4.2h7.2v1.6h-7.2v4.5H22V45H12.3z"/>
	<path d="M23.7,45V31.5h5.8c1.6,0,2.8,0.4,3.5,1.3c0.6,0.7,0.8,1.5,0.8,2.6c0,0.9-0.2,1.7-0.7,2.3c-0.4,0.6-1,1.1-1.8,1.4l2.9,5.9
		h-2.1l-2.6-5.6c-0.1,0-0.1,0-0.2,0h-0.1h-0.1h-3.7V45H23.7z M25.5,37.9h3.7c1.9,0,2.8-0.8,2.8-2.5c0-1.6-0.9-2.5-2.8-2.5h-3.7V37.9
		z"/>
	<path d="M35.5,45V31.5h9.4v1.6h-7.6v4.2h6.8v1.6h-6.8V45H35.5z"/>
	<path d="M52.2,31.1c1.9,0,3.5,0.6,4.6,1.9c1.1,1.3,1.7,3,1.7,5.2c0,2.2-0.6,4-1.7,5.2c-1.1,1.2-2.7,1.9-4.6,1.9
		c-1.8,0-3.2-0.5-4.3-1.5c-1.4-1.3-2-3.1-2-5.6c0-2.2,0.6-4,1.7-5.2C48.6,31.8,50.2,31.1,52.2,31.1z M52.1,32.7
		c-1.4,0-2.5,0.5-3.3,1.6c-0.7,1-1.1,2.3-1.1,4c0,1.6,0.4,3,1.1,4c0.8,1.1,1.9,1.6,3.3,1.6c1.3,0,2.3-0.4,3.1-1.3
		c0.9-1,1.4-2.4,1.4-4.2c0-1.7-0.4-3-1.1-4C54.6,33.2,53.5,32.7,52.1,32.7z"/>
	<path d="M60.3,45V31.5h5.8c1.6,0,2.8,0.4,3.5,1.3c0.6,0.7,0.8,1.5,0.8,2.6c0,0.9-0.2,1.7-0.7,2.3c-0.4,0.6-1,1.1-1.8,1.4l2.9,5.9
		h-2.1l-2.6-5.6c-0.1,0-0.1,0-0.2,0h-0.1h-0.1h-3.7V45H60.3z M62.1,37.9h3.7c1.9,0,2.8-0.8,2.8-2.5c0-1.6-0.9-2.5-2.8-2.5h-3.7V37.9
		z"/>
	<path d="M72.5,45V31.5h2.8l4,11.6l4.1-11.6h2.7V45h-1.7V33.2L80.1,45h-1.9l-4-11.7V45H72.5z"/>
	<path d="M87,45l5.1-13.5h2.3L99.5,45h-1.9l-1.2-3.3H90L88.8,45H87z M90.6,40.1h5.2L93.2,33L90.6,40.1z"/>
	<path d="M100.5,45V31.5h2.1l6.7,11v-11h1.8V45h-2.1l-6.7-11.1V45H100.5z"/>
	<path d="M124.4,35.3l-1.8,0.4c-0.2-0.8-0.5-1.4-0.9-1.8c-0.6-0.8-1.6-1.2-2.8-1.2c-1.4,0-2.5,0.6-3.2,1.7c-0.7,1-1,2.3-1,4
		c0,1.6,0.3,2.9,1,3.9c0.7,1,1.8,1.5,3.1,1.5c1,0,1.8-0.3,2.5-0.8c0.7-0.6,1.2-1.5,1.4-2.8l1.9,0.3c-0.3,1.4-0.8,2.5-1.5,3.2
		c-1,1.1-2.4,1.7-4.3,1.7c-1.6,0-3-0.5-4-1.4c-1.3-1.2-2-3.1-2-5.5c0-2.3,0.5-4,1.6-5.3c1.1-1.3,2.6-1.9,4.5-1.9
		C121.9,31.1,123.7,32.5,124.4,35.3z"/>
	<path d="M126.2,45V31.5h9.4v1.6H128v4.2h7.2v1.6H128v4.5h7.9V45H126.2z"/>
	<path d="M141.4,45V31.5h4.3c2.2,0,3.9,0.6,5,1.7c1.1,1.1,1.7,2.8,1.7,5.1c0,2.2-0.6,3.9-1.7,5c-1.1,1.1-2.8,1.7-5,1.7H141.4z
		 M143.2,43.4h2.5c1.6,0,2.8-0.5,3.6-1.5c0.7-0.9,1.1-2.1,1.1-3.8c0-3.4-1.6-5.1-4.7-5.1h-2.6V43.4z"/>
	<path d="M154.2,45V31.5h5.8c1.6,0,2.8,0.4,3.5,1.3c0.6,0.7,0.8,1.5,0.8,2.6c0,0.9-0.2,1.7-0.7,2.3c-0.4,0.6-1,1.1-1.8,1.4l2.9,5.9
		h-2.1l-2.6-5.6c-0.1,0-0.1,0-0.2,0h-0.1h-0.1H156V45H154.2z M156,37.9h3.7c1.9,0,2.8-0.8,2.8-2.5c0-1.6-0.9-2.5-2.8-2.5H156V37.9z"
		/>
	<path d="M166.4,45V31.5h1.8V45H166.4z"/>
	<path d="M173.9,45l-4.7-13.5h1.9l4,11.8l4-11.8h1.9L176.1,45H173.9z"/>
	<path d="M181.9,45V31.5h1.8V45H181.9z"/>
	<path d="M186,45V31.5h2.1l6.7,11v-11h1.8V45h-2.1l-6.7-11.1V45H186z"/>
	<path d="M209.9,35l-1.8,0.5c-0.2-0.7-0.5-1.2-0.8-1.6c-0.6-0.8-1.6-1.2-2.9-1.2c-1.4,0-2.4,0.6-3.2,1.7c-0.7,1-1,2.3-1,4
		c0,1.6,0.3,2.9,1,3.9c0.7,1,1.8,1.5,3.1,1.5c1.1,0,1.9-0.3,2.6-0.8c0.7-0.5,1.1-1.2,1.1-2.1v-1.2h-2.2v-1.5h4V45h-1.2l-0.3-1.4
		c-1,1.2-2.4,1.7-4.1,1.7c-1.6,0-2.9-0.5-3.9-1.4c-1.3-1.2-2-3.1-2-5.5c0-2.3,0.5-4,1.6-5.3c1.1-1.3,2.6-1.9,4.5-1.9
		C207.4,31.1,209.2,32.4,209.9,35z"/>
	<path d="M215,41.3l1.8-0.4c0.2,0.8,0.5,1.5,0.9,1.9c0.6,0.7,1.6,1,2.9,1c1.1,0,1.9-0.2,2.5-0.6c0.5-0.4,0.8-1,0.8-1.7
		c0-0.7-0.2-1.3-0.7-1.6c-0.4-0.3-1-0.5-1.8-0.7l-2.1-0.4c-2.6-0.5-3.9-1.7-3.9-3.8c0-1.2,0.4-2.1,1.3-2.8c0.9-0.7,2.1-1,3.7-1
		c1.9,0,3.3,0.5,4.2,1.4c0.5,0.5,0.8,1.2,1.1,2.1l-1.7,0.6c-0.3-0.8-0.6-1.3-1-1.7c-0.6-0.5-1.5-0.8-2.6-0.8c-1,0-1.8,0.2-2.3,0.6
		c-0.5,0.4-0.8,0.9-0.8,1.6c0,1.2,0.8,1.9,2.5,2.2l2.4,0.4c1.3,0.2,2.3,0.7,2.8,1.3c0.5,0.6,0.8,1.4,0.8,2.4c0,1.2-0.4,2.2-1.3,2.9
		c-0.9,0.8-2.3,1.1-4,1.1c-1.6,0-2.9-0.3-3.8-1C215.9,43.6,215.3,42.7,215,41.3z"/>
	<path d="M238.6,35.3l-1.8,0.4c-0.2-0.8-0.5-1.4-0.9-1.8c-0.6-0.8-1.6-1.2-2.8-1.2c-1.4,0-2.5,0.6-3.2,1.7c-0.7,1-1,2.3-1,4
		c0,1.6,0.3,2.9,1,3.9c0.7,1,1.8,1.5,3.1,1.5c1,0,1.8-0.3,2.5-0.8c0.7-0.6,1.2-1.5,1.4-2.8l1.9,0.3c-0.3,1.4-0.8,2.5-1.5,3.2
		c-1,1.1-2.4,1.7-4.3,1.7c-1.6,0-3-0.5-4-1.4c-1.3-1.2-2-3.1-2-5.5c0-2.3,0.5-4,1.6-5.3s2.6-1.9,4.5-1.9
		C236.2,31.1,238,32.5,238.6,35.3z"/>
	<path d="M240.4,45V31.5h1.8V37h7.1v-5.5h1.8V45h-1.8v-6.3h-7.1V45H240.4z"/>
	<path d="M259.3,31.1c1.9,0,3.5,0.6,4.6,1.9c1.1,1.3,1.7,3,1.7,5.2c0,2.2-0.6,4-1.7,5.2c-1.1,1.2-2.7,1.9-4.6,1.9
		c-1.8,0-3.2-0.5-4.3-1.5c-1.4-1.3-2-3.1-2-5.6c0-2.2,0.6-4,1.7-5.2C255.7,31.8,257.3,31.1,259.3,31.1z M259.2,32.7
		c-1.4,0-2.5,0.5-3.3,1.6c-0.7,1-1.1,2.3-1.1,4c0,1.6,0.4,3,1.1,4c0.8,1.1,1.9,1.6,3.3,1.6c1.3,0,2.3-0.4,3.1-1.3
		c0.9-1,1.4-2.4,1.4-4.2c0-1.7-0.4-3-1.1-4C261.8,33.2,260.6,32.7,259.2,32.7z"/>
	<path d="M273.3,31.1c1.9,0,3.5,0.6,4.6,1.9c1.1,1.3,1.7,3,1.7,5.2c0,2.2-0.6,4-1.7,5.2c-1.1,1.2-2.7,1.9-4.6,1.9
		c-1.8,0-3.2-0.5-4.3-1.5c-1.4-1.3-2-3.1-2-5.6c0-2.2,0.6-4,1.7-5.2C269.7,31.8,271.3,31.1,273.3,31.1z M273.2,32.7
		c-1.4,0-2.5,0.5-3.3,1.6c-0.7,1-1.1,2.3-1.1,4c0,1.6,0.4,3,1.1,4c0.8,1.1,1.9,1.6,3.3,1.6c1.3,0,2.3-0.4,3.1-1.3
		c0.9-1,1.4-2.4,1.4-4.2c0-1.7-0.4-3-1.1-4C275.7,33.2,274.6,32.7,273.2,32.7z"/>
	<path d="M281.4,45V31.5h1.8v11.9h7.3V45H281.4z"/>
	<path d="M290.9,41.3l1.8-0.4c0.2,0.8,0.5,1.5,0.9,1.9c0.6,0.7,1.6,1,2.9,1c1.1,0,1.9-0.2,2.5-0.6c0.5-0.4,0.8-1,0.8-1.7
		c0-0.7-0.2-1.3-0.7-1.6c-0.4-0.3-1-0.5-1.8-0.7l-2.1-0.4c-2.6-0.5-3.9-1.7-3.9-3.8c0-1.2,0.4-2.1,1.3-2.8c0.9-0.7,2.1-1,3.7-1
		c1.9,0,3.3,0.5,4.2,1.4c0.5,0.5,0.8,1.2,1.1,2.1l-1.7,0.6c-0.3-0.8-0.6-1.3-1-1.7c-0.6-0.5-1.5-0.8-2.6-0.8c-1,0-1.8,0.2-2.3,0.6
		c-0.5,0.4-0.8,0.9-0.8,1.6c0,1.2,0.8,1.9,2.5,2.2l2.4,0.4c1.3,0.2,2.3,0.7,2.8,1.3c0.5,0.6,0.8,1.4,0.8,2.4c0,1.2-0.4,2.2-1.3,2.9
		c-0.9,0.8-2.3,1.1-4,1.1c-1.6,0-2.9-0.3-3.8-1C291.9,43.6,291.3,42.7,290.9,41.3z"/>
</g>
<line fill="none" stroke="#BBBCBE" stroke-width="1.5" stroke-miterlimit="10" x1="167.7" y1="20.7" x2="304.4" y2="20.7"/>
<line fill="none" stroke="#BBBCBE" stroke-width="1.5" stroke-miterlimit="10" x1="0" y1="55.2" x2="304.4" y2="55.2"/>
</svg>
