<svg id="Page_1" data-name="Page 1" xmlns="http://www.w3.org/2000/svg" viewBox="0 0 396.85 340.16"><defs><style>.cls-1,.cls-4{fill:none;stroke:#000;stroke-linecap:round;stroke-miterlimit:10;}.cls-2{fill:#fff;}.cls-3{fill:#231f20;}.cls-4{stroke-width:0.75px;}</style></defs><title>mini_logo</title><g id="Layer_1" data-name="Layer 1"><path d="M194.71,149.73h-1.2v-6.16h1.79l1.57,4.92,1.56-4.92h1.79v6.16H199v-4.56l-1.44,4.56h-1.34l-1.48-4.59v4.59m6.9-6.16h1.28v6.16h-1.28Zm3.9,6.16h-1.22v-6.16h1.5l2.46,4.47v-4.47h1.22v6.16H208l-2.45-4.44Zm5.35-6.16h1.28v6.16h-1.28ZM221.19,152h-5.85a13.43,13.43,0,0,0,.74-2.27h7.37l1.94-1.94h-9c0-.38.05-.75.05-1.14s0-.76-.05-1.13h11.28l1.94-1.95H216.09a13.51,13.51,0,0,0-.74-2.27h16.54l1.94-1.94H214.32a13.61,13.61,0,0,0-23,0H171.81l1.94,1.94H190.3a13.53,13.53,0,0,0-.74,2.27H176l1.94,1.95h11.28c0,.37-.05.75-.05,1.13s0,.76.05,1.14h-9l1.94,1.94h7.37a13.45,13.45,0,0,0,.74,2.27h-5.85l1.94,1.94h4.93a13.6,13.6,0,0,0,23,0h4.93Zm-18.37,6.32a11.68,11.68,0,1,1,11.68-11.68,11.69,11.69,0,0,1-11.68,11.68"/><line class="cls-1" x1="137.8" y1="118.5" x2="266.05" y2="246.76"/><line class="cls-1" x1="267.85" y1="118.5" x2="136" y2="250.35"/><path d="M202.82,206.81a19.61,19.61,0,1,0,19.61,19.61A19.63,19.63,0,0,0,202.82,206.81Zm0,36a16.39,16.39,0,1,1,16.39-16.39A16.41,16.41,0,0,1,202.82,242.8Z"/><path d="M202.83,211.65a14.78,14.78,0,0,0-14.76,14.77,14.51,14.51,0,0,0,4.27,10.37,14.76,14.76,0,1,0,10.5-25.14Zm0,28.8a14.05,14.05,0,1,1,14-14A14,14,0,0,1,202.83,240.45Z"/><path d="M218.06,221.86l0,0s0,0,0,0c-.27-.84-2.5-3.93-3.31-4.26s.56,2.09-.08,2c-4.88,0-7,2.26-7.95,1.92-1.08-.58.84-3.28-.69-8.33-.24-.59,2.32,0,1.92-.67-.56-.68-4.16-1.91-5-1.93h-.1c-.88,0-4.49,1.24-5,1.93-.4.65,2.16.08,1.92.67-1.52,5,.32,7.72-.72,8.32-1,.39-3-1.9-7.93-1.91-.64.06.66-2.23-.08-2s-3,3.42-3.31,4.26c0,0,0,0,0,0l0,0c-.24.85-.12,4.66.37,5.39.5.58.7-2,1.2-1.64,4.47,3,7.57,1.78,7.71,3.08-.07,1-2.81,2.19-4.42,6.74-.16.62-1.89-1.36-1.94-.6s2.22,4,2.92,4.54l0,0,0,0c.72.51,4.35,1.65,5.21,1.43s-1.7-1.34-1.15-1.68c4.08-3.06,4.19-6.22,5.28-6.27,1,.2,1.18,3.28,5.14,6.31.54.34-1.87,1.37-1.17,1.66s4.5-.88,5.22-1.38l0,0,0,0c.71-.53,2.92-3.63,3-4.51s-1.8,1.2-1.95.58c-1.6-4.68-4.44-5.83-4.35-6.86a.64.64,0,0,1,0-.15v0c.44-1,3.45-.06,7.66-2.88.5-.41.7,2.22,1.2,1.64C218.18,226.51,218.3,222.7,218.06,221.86Z"/><path class="cls-2" d="M202.82,242.5a16,16,0,0,1-3.48-31.69,2,2,0,0,1,1.78.39c.64.64.5,1.69.33,2.91a11.42,11.42,0,0,0-.15,2.82c.16,2.66.69,4.11,1.47,4.11,1,0,1.24-1.3,1.43-4.1a12.1,12.1,0,0,0-.18-2.44c-.19-1.37-.36-2.55.37-3.26a2.16,2.16,0,0,1,2-.41,16,16,0,0,1,12.49,15.64h0A16.05,16.05,0,0,1,202.82,242.5Zm-2.92-30.39-.32,0a14.69,14.69,0,1,0,17.92,14.33,14.6,14.6,0,0,0-11.4-14.31c-.44-.07-.69,0-.76.05-.24.23-.09,1.32,0,2.11a13.41,13.41,0,0,1,.19,2.71c-.17,2.47-.35,5.27-2.75,5.36h0c-2.26,0-2.7-3.05-2.84-5.35a12.72,12.72,0,0,1,.15-3.12c.08-.6.22-1.6.06-1.76A.49.49,0,0,0,199.91,212.11Z"/><path class="cls-2" d="M202.81,242.62a16,16,0,0,1-5.09-31.24,16.14,16.14,0,0,1,18.83,6.91,2,2,0,0,1,.2,1.82c-.4.81-1.44,1-2.65,1.24a11.52,11.52,0,0,0-2.72.76c-2.47,1-3.68,2-3.43,2.7.35.92,1.62.76,4.34,0a12,12,0,0,0,2.26-.94c1.24-.62,2.31-1.15,3.21-.68a2.16,2.16,0,0,1,1,1.73,16,16,0,0,1-10.85,16.81h0A16.06,16.06,0,0,1,202.81,242.62Zm0-30.71a14.67,14.67,0,0,0-13.87,19.35,14.7,14.7,0,0,0,18.59,9.25h0a14.6,14.6,0,0,0,9.94-15.36c-.07-.44-.2-.66-.29-.71-.3-.15-1.28.34-2,.69a13.38,13.38,0,0,1-2.52,1c-2.39.63-5.1,1.34-6-.9s2.81-3.85,4.17-4.4a12.65,12.65,0,0,1,3-.85c.59-.11,1.59-.3,1.69-.51,0,0,0-.14-.17-.57A14.74,14.74,0,0,0,202.77,211.9Z"/><path class="cls-2" d="M202.78,242.07a15.94,15.94,0,0,1-13.17-7h0A16,16,0,0,1,216,216.94a16.13,16.13,0,0,1-1.48,20,2,2,0,0,1-1.69.69c-.89-.16-1.37-1.11-1.92-2.21a11.55,11.55,0,0,0-1.48-2.41c-1.64-2.1-2.89-3-3.54-2.56s-.29,1.77,1.14,4.19a12.13,12.13,0,0,0,1.53,1.91c.93,1,1.74,1.9,1.54,2.9a2.16,2.16,0,0,1-1.39,1.45A16.21,16.21,0,0,1,202.78,242.07Zm0-30.73a14.68,14.68,0,0,0-12.07,23h0a14.61,14.61,0,0,0,17.5,5.35c.4-.19.58-.37.6-.47.07-.33-.67-1.13-1.21-1.72a13.37,13.37,0,0,1-1.69-2.13c-1.26-2.13-2.69-4.54-.77-6,1.87-1.28,4,1,5.37,2.8a12.62,12.62,0,0,1,1.64,2.65c.27.54.73,1.44,1,1.49,0,0,.14,0,.5-.32a14.76,14.76,0,0,0,1.32-18.29,14.58,14.58,0,0,0-9.42-6.12A15,15,0,0,0,202.79,211.33Z"/><path class="cls-2" d="M202.76,242.08a15.82,15.82,0,0,1-6.56-1.42,2,2,0,0,1-1.19-1.38c-.13-.9.62-1.65,1.48-2.52a11.43,11.43,0,0,0,1.81-2.16c1.47-2.23,1.93-3.7,1.3-4.17-.81-.57-1.77.29-3.61,2.42a12.1,12.1,0,0,0-1.33,2.06c-.67,1.21-1.25,2.25-2.26,2.38a2.17,2.17,0,0,1-1.82-.86,16,16,0,1,1,25-.72A16.13,16.13,0,0,1,202.76,242.08Zm-3.67-13.18a2.23,2.23,0,0,1,1.29.43c1.8,1.36.32,4.07-.95,6a12.67,12.67,0,0,1-2,2.4c-.43.43-1.14,1.15-1.11,1.38,0,0,0,.14.46.37a14.76,14.76,0,0,0,17.76-4.56,14.68,14.68,0,1,0-23.46-17.66h0a14.6,14.6,0,0,0,.5,18.29c.3.32.51.44.64.42.33,0,.86-1,1.25-1.7A13.21,13.21,0,0,1,195,232C196.22,230.5,197.61,228.89,199.09,228.89Z"/><path class="cls-2" d="M202.84,242.68a16.06,16.06,0,0,1-16-17.58,2,2,0,0,1,.92-1.57c.8-.41,1.76,0,2.87.58a11.45,11.45,0,0,0,2.63,1c2.59.67,4.13.62,4.37-.12.27-.95-.85-1.58-3.46-2.63a12,12,0,0,0-2.37-.59c-1.36-.24-2.54-.45-3-1.37a2.15,2.15,0,0,1,.22-2,16,16,0,0,1,18.74-7h0a16,16,0,0,1-5,31.29Zm-14.36-18-.08,0s-.12.08-.2.55a14.76,14.76,0,0,0,10.08,15.32,14.68,14.68,0,0,0,9.1-27.92h0a14.61,14.61,0,0,0-17.14,6.4c-.2.39-.23.65-.19.74.15.3,1.22.49,2,.63a13.38,13.38,0,0,1,2.64.67c2.3.92,4.9,2,4.25,4.27-.7,2.15-3.74,1.62-6,1a12.68,12.68,0,0,1-2.92-1.11A6.13,6.13,0,0,0,188.48,224.71Z"/><circle class="cls-2" cx="202.82" cy="226.47" r="1.97"/><circle class="cls-3" cx="202.82" cy="226.48" r="1.69"/><path d="M229.17,199.39a.79.79,0,0,1-1,.53h0a.79.79,0,0,1-.48-1l6.52-19.75a.79.79,0,0,1,1-.53h0a.79.79,0,0,1,.48,1Z"/><path d="M244.2,172.35a18.64,18.64,0,0,0,6.19.61l1.9-5.76a18.65,18.65,0,0,1-6.19-.61Z"/><path d="M256.92,172.56a18.73,18.73,0,0,1,6.19.61l1.9-5.76a18.76,18.76,0,0,0-6.19-.61Z"/><path d="M248.49,178.73c2.16-.08,4.37-.33,6.52-.4l1.9-5.76c-2.16.08-4.37.33-6.52.4Z"/><path d="M272.7,164.05c-7.58-9.66-22.08,1.65-29.66-8a13.28,13.28,0,0,1-.81-1.16l-.35,1.07-7.69,23.29-.35,1.07a13.25,13.25,0,0,0,.81,1.16c7.58,9.66,22.08-1.64,29.66,8a13.47,13.47,0,0,1,.81,1.16l.35-1.07,7.69-23.29.35-1.07A13.33,13.33,0,0,0,272.7,164.05Zm-13.31,20.38,1.82-5.5a18.74,18.74,0,0,0-6.19-.61l-1.82,5.5c-2.16.08-4.37.33-6.53.4l1.82-5.5a18.65,18.65,0,0,1-6.19-.61l-1.82,5.5a10,10,0,0,1-5-3.4l1.82-5.5a10,10,0,0,0,5,3.4l1.9-5.76a10,10,0,0,1-5-3.39l1.9-5.76a10,10,0,0,0,5,3.39l1.81-5.5a18.65,18.65,0,0,0,6.19.61l-1.81,5.5c2.16-.08,4.37-.32,6.52-.4l1.81-5.5a18.75,18.75,0,0,1,6.19.61L265,167.4a10,10,0,0,1,5,3.4l-1.9,5.77a10,10,0,0,0-5-3.4l-1.9,5.76a10,10,0,0,1,5,3.4l-1.82,5.5A10,10,0,0,0,259.39,184.43Z"/><path d="M176.59,199.39a.79.79,0,0,0,1,.53h0a.79.79,0,0,0,.48-1l-6.52-19.75a.79.79,0,0,0-1-.53h0a.79.79,0,0,0-.48,1Z"/><path d="M161.56,172.35a18.64,18.64,0,0,1-6.19.61l-1.9-5.76a18.65,18.65,0,0,0,6.19-.61Z"/><path d="M148.84,172.56a18.73,18.73,0,0,0-6.19.61l-1.9-5.76a18.76,18.76,0,0,1,6.19-.61Z"/><path d="M157.27,178.73c-2.16-.08-4.37-.33-6.52-.4l-1.9-5.76c2.16.08,4.37.33,6.52.4Z"/><path d="M132.26,165.21l.35,1.07,7.69,23.29.35,1.07a13.47,13.47,0,0,1,.81-1.16c7.58-9.66,22.08,1.65,29.66-8a13.25,13.25,0,0,0,.81-1.16l-.35-1.07L163.89,156l-.35-1.07a13.28,13.28,0,0,1-.81,1.16c-7.58,9.66-22.08-1.64-29.66,8A13.33,13.33,0,0,0,132.26,165.21Zm9.11,22.63-1.82-5.5a10,10,0,0,1,5-3.4l-1.9-5.76a10,10,0,0,0-5,3.4l-1.9-5.77a10,10,0,0,1,5-3.4l-1.81-5.5a18.75,18.75,0,0,1,6.19-.61l1.81,5.5c2.16.08,4.37.33,6.52.4l-1.81-5.5a18.65,18.65,0,0,0,6.19-.61l1.81,5.5a10,10,0,0,0,5-3.39l1.9,5.76a10,10,0,0,1-5,3.39l1.9,5.76a10,10,0,0,0,5-3.4l1.82,5.5a10,10,0,0,1-5,3.4l-1.82-5.5a18.65,18.65,0,0,1-6.19.61l1.82,5.5c-2.16-.08-4.37-.32-6.53-.4l-1.82-5.5a18.74,18.74,0,0,0-6.19.61l1.82,5.5A10,10,0,0,0,141.37,187.84Z"/><path d="M121,105.41c0,4,0,5.93,0,9.88l1.31-.44v.61c-1.62.54-2.43.82-4.05,1.4v-.61l1.31-.46c0-3.48,0-5.22,0-8.7-1.41,4.21-2.11,6.33-3.52,10.56l-.75.28,0,0-3.64-8c0,3.51,0,5.26,0,8.77l1.28-.49v.61c-1.33.51-2,.76-3.33,1.29v-.61L111,119c0-4,0-5.93,0-9.88l-1.33.52V109l2.81-1.09L116,115.8c1.4-4.21,2.1-6.31,3.5-10.5l2.82-1V105Z"/><path d="M126.36,103.65c0,4,0,5.94,0,9.9l1.74-.55v.61c-2,.61-2.94.92-4.9,1.57v-.61l1.74-.57c0-4,0-5.94,0-9.9l-1.67.55V104c1.9-.63,2.86-.94,4.77-1.53v.61Z"/><path d="M139,99.38V100l-1.43.38v10.49l-.79.21c-2.31-3.12-3.46-4.67-5.75-7.74,0,3.5,0,5.25,0,8.76l1.44-.42v.61c-1.41.41-2.12.62-3.53,1v-.61l1.36-.41v-9.88l-1.36.41v-.63l2.77-.83c2,2.72,3.06,4.09,5.1,6.85v-7.66l-1.37.38v-.63C136.86,99.95,137.58,99.76,139,99.38Z"/><path d="M143.06,99v9.9l1.77-.42v.61c-2,.47-3,.71-5,1.22v-.61l1.76-.45v-9.9l-1.7.43v-.61c1.93-.5,2.9-.73,4.84-1.19v.61Z"/><path d="M161.7,95.19c0,4,0,5.93,0,9.88l1.36-.22v.61c-1.67.27-2.51.41-4.18.7v-.61l1.35-.24c0-3.48,0-5.22,0-8.7-1.46,4-2.18,6-3.64,10l-.78.15,0,0L152,98.09c0,3.51,0,5.26,0,8.77l1.33-.27v.61c-1.38.28-2.07.42-3.45.71v-.61l1.38-.29V97.14l-1.38.29V96.8l2.91-.61,3.7,8.53c1.45-4,2.17-5.95,3.62-9.9l2.91-.48V95Z"/><path d="M168.38,93.55a5.35,5.35,0,0,1,1.62,0,3.93,3.93,0,0,1,1.27.43,3.41,3.41,0,0,1,.94.77,4.33,4.33,0,0,1,.64,1,5,5,0,0,1,.37,1.16,6.62,6.62,0,0,1,.12,1.23,8.15,8.15,0,0,1-.12,1.36,7.92,7.92,0,0,1-.37,1.39,7.07,7.07,0,0,1-.65,1.32,5.63,5.63,0,0,1-.94,1.14,5.17,5.17,0,0,1-2.87,1.33,5.61,5.61,0,0,1-1.65,0,3.88,3.88,0,0,1-1.26-.41,3.23,3.23,0,0,1-.92-.75,4,4,0,0,1-.62-1,5.23,5.23,0,0,1-.35-1.16,6.91,6.91,0,0,1-.11-1.23,8.65,8.65,0,0,1,.11-1.37,8.14,8.14,0,0,1,.36-1.4,7,7,0,0,1,.63-1.33,5.48,5.48,0,0,1,.93-1.15,5.15,5.15,0,0,1,2.88-1.35Zm3.4,5.85a10.66,10.66,0,0,0-.09-1.37,8.33,8.33,0,0,0-.27-1.3,6.11,6.11,0,0,0-.46-1.14,3.38,3.38,0,0,0-.65-.88,2.42,2.42,0,0,0-.86-.53,2.28,2.28,0,0,0-1.08-.09,3.73,3.73,0,0,0-1.59.56,3.43,3.43,0,0,0-1,1.07,4.57,4.57,0,0,0-.56,1.43,8.1,8.1,0,0,0-.17,1.65,10.47,10.47,0,0,0,.08,1.36,8.49,8.49,0,0,0,.26,1.3,6,6,0,0,0,.45,1.15,3.5,3.5,0,0,0,.65.89,2.36,2.36,0,0,0,.86.54,2.23,2.23,0,0,0,1.07.09,3.89,3.89,0,0,0,1.6-.55,3.42,3.42,0,0,0,1.05-1.05,4.42,4.42,0,0,0,.57-1.44A8,8,0,0,0,171.78,99.4Z"/><path d="M174.15,92.83c3.55-.41,5.33-.58,8.89-.86v3l-.63.05-.95-2.29-2.12.19c0,4,0,5.94,0,9.9l1.52-.14v.61c-1.82.16-2.73.25-4.55.44v-.61l1.54-.16c0-4,0-5.94,0-9.9l-2.15.22-.93,2.47-.63.07C174.15,94.62,174.15,94,174.15,92.83Z"/><path d="M188.81,91.58a5.47,5.47,0,0,1,1.63.13,4.3,4.3,0,0,1,1.27.53,3.86,3.86,0,0,1,.94.84,4.84,4.84,0,0,1,.65,1.06,5.34,5.34,0,0,1,.37,1.19,6.79,6.79,0,0,1,.12,1.24,7.89,7.89,0,0,1-.12,1.35,7.38,7.38,0,0,1-.37,1.36,6.37,6.37,0,0,1-.65,1.27,5,5,0,0,1-.95,1.07,4.69,4.69,0,0,1-1.27.76,5,5,0,0,1-1.62.34,5.74,5.74,0,0,1-1.66-.12,4.22,4.22,0,0,1-1.27-.52,3.66,3.66,0,0,1-.93-.83,4.54,4.54,0,0,1-.62-1.05A5.62,5.62,0,0,1,184,99a7,7,0,0,1-.11-1.24,8.36,8.36,0,0,1,.12-1.36,7.67,7.67,0,0,1,.36-1.37,6.34,6.34,0,0,1,.63-1.27,4.86,4.86,0,0,1,.94-1.07,4.72,4.72,0,0,1,1.27-.77A5,5,0,0,1,188.81,91.58Zm3.42,6.12a10.69,10.69,0,0,0-.09-1.38,8.9,8.9,0,0,0-.27-1.33,6.62,6.62,0,0,0-.46-1.17,3.8,3.8,0,0,0-.66-.93,2.72,2.72,0,0,0-.87-.6,2.37,2.37,0,0,0-1.09-.18,3.52,3.52,0,0,0-1.6.43,3,3,0,0,0-1,1,4.18,4.18,0,0,0-.56,1.39,7.87,7.87,0,0,0-.17,1.64,10.59,10.59,0,0,0,.08,1.37,8.84,8.84,0,0,0,.26,1.32,6.62,6.62,0,0,0,.46,1.18,3.92,3.92,0,0,0,.65.94,2.66,2.66,0,0,0,.86.61,2.32,2.32,0,0,0,1.08.18,3.67,3.67,0,0,0,1.61-.42,3.05,3.05,0,0,0,1.06-1,4.05,4.05,0,0,0,.58-1.39A7.83,7.83,0,0,0,192.23,97.7Z"/><path d="M198.42,97.18l-1.33,0c0,1.83,0,2.74,0,4.57l1.39,0v.61c-1.7,0-2.56.05-4.26.11v-.61l1.39,0c0-4,0-5.94,0-9.9l-1.39,0v-.61c2-.07,3-.09,5.08-.12a4.5,4.5,0,0,1,1.56.22,2.94,2.94,0,0,1,1.07.63,2.49,2.49,0,0,1,.62.93,3.18,3.18,0,0,1,.2,1.12,3,3,0,0,1-.19,1.08,2.7,2.7,0,0,1-.53.88,2.87,2.87,0,0,1-.85.63,4,4,0,0,1-1.12.36l3.16,4.64h1.35v.61h-2.74Zm-1.33-.62,2,0a1.83,1.83,0,0,0,.78-.18,2,2,0,0,0,.63-.49,2.3,2.3,0,0,0,.42-.74,2.81,2.81,0,0,0,.15-.94,3,3,0,0,0-.15-1,2.23,2.23,0,0,0-.41-.74,1.77,1.77,0,0,0-.63-.47,1.9,1.9,0,0,0-.81-.16l-2,0C197.08,93.75,197.08,94.69,197.08,96.56Z"/><path d="M208.49,91.87c0,4,0,5.94,0,9.9l1.81,0v.61c-2-.06-3-.08-5.08-.1v-.61l1.81,0c0-4,0-5.94,0-9.9l-1.74,0v-.61c2,0,3,0,4.95.1v.61Z"/><path d="M221.52,91.88v.63l-1.47-.1c0,4.2,0,6.3,0,10.49l-.81-.05c-2.36-3.9-3.55-5.84-5.92-9.68,0,3.5,0,5.25,0,8.76l1.49.07v.61c-1.46-.07-2.19-.1-3.64-.15v-.61l1.4,0c0-4,0-5.93,0-9.88l-1.4,0v-.63l2.86.11c2.1,3.41,3.15,5.12,5.25,8.57,0-3.06,0-4.6,0-7.66l-1.41-.09v-.63C219.33,91.73,220.06,91.78,221.52,91.88Z"/><path d="M229.52,95.61a3.33,3.33,0,0,0-.34-1.19,2.92,2.92,0,0,0-.64-.83,2.81,2.81,0,0,0-.81-.51,3.06,3.06,0,0,0-.85-.21,3.25,3.25,0,0,0-1.6.19,2.5,2.5,0,0,0-1.05.83,3.52,3.52,0,0,0-.58,1.3,7.34,7.34,0,0,0-.18,1.61,11,11,0,0,0,.08,1.38,9.65,9.65,0,0,0,.27,1.36,7.6,7.6,0,0,0,.46,1.25,4.77,4.77,0,0,0,.66,1,3.37,3.37,0,0,0,.87.74,2.58,2.58,0,0,0,1.08.34,2.49,2.49,0,0,0,1-.1,2.2,2.2,0,0,0,.8-.45,2.12,2.12,0,0,0,.53-.74,2.35,2.35,0,0,0,.19-1V99.44l-2-.2v-.6c1.79.17,2.68.27,4.46.48v.6l-1-.11c0,1.71,0,2.56,0,4.27l-1.51-.16v-1.16a1.64,1.64,0,0,1-.32.36,2.13,2.13,0,0,1-.53.32,3.13,3.13,0,0,1-.74.21,3.63,3.63,0,0,1-.94,0,6.16,6.16,0,0,1-1.66-.37,5,5,0,0,1-1.28-.71,4.58,4.58,0,0,1-.93-1,5.46,5.46,0,0,1-.62-1.15A6.09,6.09,0,0,1,222,99a7.6,7.6,0,0,1-.11-1.25,8.49,8.49,0,0,1,.11-1.35,6.63,6.63,0,0,1,.36-1.32,5.41,5.41,0,0,1,.63-1.18A3.75,3.75,0,0,1,224,93a3.89,3.89,0,0,1,1.28-.57,4.8,4.8,0,0,1,1.64-.1,6.37,6.37,0,0,1,1.22.23,6.44,6.44,0,0,1,1,.4,5.33,5.33,0,0,1,.84.51,4.28,4.28,0,0,1,.61.56v1.69Z"/><path d="M238.5,101.73a5,5,0,0,0,.29,1.24,2.86,2.86,0,0,0,.51.86,2.23,2.23,0,0,0,.7.53,3.08,3.08,0,0,0,.88.26,2.83,2.83,0,0,0,.95,0,1.69,1.69,0,0,0,.71-.29,1.38,1.38,0,0,0,.44-.55,1.91,1.91,0,0,0,.15-.79,1.86,1.86,0,0,0-.23-.92,2.8,2.8,0,0,0-.66-.78l-.45-.36-.62-.47-.7-.53-.68-.51-.57-.42-.37-.27a5.86,5.86,0,0,1-.53-.46,2.85,2.85,0,0,1-.44-.56,2.94,2.94,0,0,1-.3-.68,3,3,0,0,1-.11-.85,2.07,2.07,0,0,1,.24-1,2,2,0,0,1,.69-.74,2.83,2.83,0,0,1,1.08-.4,4.52,4.52,0,0,1,1.43,0,6.74,6.74,0,0,1,1,.23,6.56,6.56,0,0,1,.91.36,4.83,4.83,0,0,1,.76.46,3.46,3.46,0,0,1,.59.55v2l-1.05-.17a5.74,5.74,0,0,0-.25-1.28,2.65,2.65,0,0,0-.46-.85,1.85,1.85,0,0,0-.67-.5,3.39,3.39,0,0,0-.87-.25,2.44,2.44,0,0,0-1,0,1.48,1.48,0,0,0-.64.32,1.27,1.27,0,0,0-.36.55,2.11,2.11,0,0,0-.11.68,1.85,1.85,0,0,0,.8,1.49l.37.27.6.45.72.55.72.55.6.46.37.28a4.24,4.24,0,0,1,1.15,1.23,2.89,2.89,0,0,1,.38,1.47,2.3,2.3,0,0,1-.25,1.08,2.07,2.07,0,0,1-.72.79,3,3,0,0,1-1.15.42,4.79,4.79,0,0,1-1.53,0,7.38,7.38,0,0,1-1.16-.27,6.45,6.45,0,0,1-1-.39,4.73,4.73,0,0,1-.75-.47,3.19,3.19,0,0,1-.53-.52v-2Z"/><path d="M253.29,99.33a3.93,3.93,0,0,0-.32-1.25,3.42,3.42,0,0,0-.59-.9,2.88,2.88,0,0,0-.75-.58,2.94,2.94,0,0,0-.81-.29,3.11,3.11,0,0,0-1.59,0,2.15,2.15,0,0,0-1,.73,3.17,3.17,0,0,0-.56,1.25,7.09,7.09,0,0,0-.17,1.6,11,11,0,0,0,.09,1.38,9.8,9.8,0,0,0,.27,1.37,8,8,0,0,0,.46,1.26,5.25,5.25,0,0,0,.66,1.08,3.79,3.79,0,0,0,.88.8,3,3,0,0,0,1.1.44,2.91,2.91,0,0,0,.94,0,2.36,2.36,0,0,0,1.59-.92,2.49,2.49,0,0,0,.44-1l.66.14a3.2,3.2,0,0,1-.46,1.15,2.84,2.84,0,0,1-.83.83,3,3,0,0,1-1.12.43,3.62,3.62,0,0,1-1.33,0,6.46,6.46,0,0,1-1.64-.53,5.65,5.65,0,0,1-1.26-.83,5.27,5.27,0,0,1-.92-1.06,6.22,6.22,0,0,1-.62-1.21A6.91,6.91,0,0,1,246,102a7.55,7.55,0,0,1-.11-1.26,7.86,7.86,0,0,1,.11-1.33,6.43,6.43,0,0,1,.36-1.28A4.78,4.78,0,0,1,247,97a3.33,3.33,0,0,1,.93-.85,3.49,3.49,0,0,1,1.26-.45,4.56,4.56,0,0,1,1.61.05,6.21,6.21,0,0,1,2.18.85,5.57,5.57,0,0,1,1.37,1.21v1.72Z"/><path d="M265.1,99.57c0,4,0,5.94,0,9.9l1.24.32v.61c-1.53-.4-2.3-.59-3.84-1v-.61l1.15.28c0-2,0-3,0-4.94-2.09-.52-3.14-.77-5.25-1.24v4.94l1.17.26v.61c-1.54-.35-2.31-.52-3.86-.85v-.61l1.25.27c0-4,0-5.94,0-9.9l-1.25-.27v-.61c1.54.33,2.32.5,3.86.85v.61L258.4,98v4.3c2.1.47,3.15.72,5.25,1.24,0-1.72,0-2.58,0-4.3l-1.15-.28v-.61c1.54.37,2.31.56,3.84,1v.61Z"/><path d="M271.57,100.68a6.53,6.53,0,0,1,1.58.67,6.37,6.37,0,0,1,1.24,1,6.24,6.24,0,0,1,.92,1.16,7.43,7.43,0,0,1,.63,1.28,7.14,7.14,0,0,1,.36,1.31,7.67,7.67,0,0,1,.11,1.27,7.46,7.46,0,0,1-.12,1.31,5.82,5.82,0,0,1-.36,1.24,4.21,4.21,0,0,1-.63,1.05,3,3,0,0,1-.92.75,3.13,3.13,0,0,1-1.23.34,4.52,4.52,0,0,1-1.57-.19,6.86,6.86,0,0,1-1.61-.67,6.28,6.28,0,0,1-1.24-.94,6,6,0,0,1-.91-1.14,6.92,6.92,0,0,1-.61-1.26,7.45,7.45,0,0,1-.34-1.3,7.67,7.67,0,0,1,0-2.59,6.08,6.08,0,0,1,.35-1.25,4.22,4.22,0,0,1,.62-1.07,2.93,2.93,0,0,1,.92-.76,3.17,3.17,0,0,1,1.24-.35A4.5,4.5,0,0,1,271.57,100.68Zm3.32,7.25a11.83,11.83,0,0,0-.09-1.41,11.13,11.13,0,0,0-.27-1.42,9.32,9.32,0,0,0-.45-1.33,6,6,0,0,0-.64-1.15,4.34,4.34,0,0,0-.84-.89,3.37,3.37,0,0,0-2.61-.63,1.86,1.86,0,0,0-1,.64,3,3,0,0,0-.55,1.2,7.26,7.26,0,0,0-.17,1.58,11.47,11.47,0,0,0,.08,1.39,10.88,10.88,0,0,0,.26,1.41,9.26,9.26,0,0,0,.45,1.33,6.15,6.15,0,0,0,.64,1.16,4.26,4.26,0,0,0,.84.89,3,3,0,0,0,1,.54,3.16,3.16,0,0,0,1.57.11,1.86,1.86,0,0,0,1-.62,2.85,2.85,0,0,0,.56-1.2A7.27,7.27,0,0,0,274.89,107.93Z"/><path d="M282.5,104a6.69,6.69,0,0,1,2.79,1.75,6.66,6.66,0,0,1,.91,1.2,7.88,7.88,0,0,1,.62,1.31,7.41,7.41,0,0,1,.35,1.33,7.78,7.78,0,0,1,.11,1.28,7.45,7.45,0,0,1-.11,1.3,5.66,5.66,0,0,1-.36,1.22,4,4,0,0,1-.62,1,2.76,2.76,0,0,1-.91.71,3,3,0,0,1-1.22.28,4.52,4.52,0,0,1-1.55-.26,7.11,7.11,0,0,1-1.6-.74,6.66,6.66,0,0,1-1.23-1,6.36,6.36,0,0,1-.9-1.18,7.34,7.34,0,0,1-.6-1.29,7.76,7.76,0,0,1-.34-1.32,8,8,0,0,1-.11-1.28,7.84,7.84,0,0,1,.11-1.31,5.91,5.91,0,0,1,.35-1.24,4,4,0,0,1,.61-1,2.72,2.72,0,0,1,.91-.72,3,3,0,0,1,1.23-.29A4.5,4.5,0,0,1,282.5,104Zm3.28,7.4a12.06,12.06,0,0,0-.09-1.41,11.52,11.52,0,0,0-.26-1.43,9.78,9.78,0,0,0-.44-1.35,6.35,6.35,0,0,0-.63-1.18,4.63,4.63,0,0,0-.83-.92,3.15,3.15,0,0,0-1-.58,3,3,0,0,0-1.54-.16,1.73,1.73,0,0,0-1,.6,2.81,2.81,0,0,0-.54,1.18,7.22,7.22,0,0,0-.17,1.58,11.67,11.67,0,0,0,.07,1.4,11.25,11.25,0,0,0,.26,1.42,9.72,9.72,0,0,0,.44,1.35,6.54,6.54,0,0,0,.63,1.19,4.55,4.55,0,0,0,.83.93,3.51,3.51,0,0,0,2.59.77,1.73,1.73,0,0,0,1-.57,2.72,2.72,0,0,0,.55-1.18A7.24,7.24,0,0,0,285.78,111.43Z"/><path d="M295.52,116.9l.59.23c0,1.19,0,1.78,0,3-3.37-1.33-5.06-2-8.47-3.18v-.61l1.47.53c0-4,0-5.94,0-9.9l-1.47-.53v-.61c1.78.63,2.66,1,4.43,1.62V108l-1.56-.58c0,4,0,5.94,0,9.9,1.65.61,2.47.92,4.12,1.56Z"/><path class="cls-4" d="M108,105.14C132.4,81.92,250.54,71,297.74,104"/><path class="cls-4" d="M108,131.14c24.19-23.42,150.45-30.34,187.77-.37"/></g></svg>